<?xml version="1.0" encoding="UTF-8" standalone="no"?>
<!DOCTYPE svg PUBLIC "-//W3C//DTD SVG 1.1//EN"
 "http://www.w3.org/Graphics/SVG/1.1/DTD/svg11.dtd">
<!-- Generated by graphviz version 2.29.20121017.0445 (20121017.0445)
 -->
<!-- Title: controllers_diagram Pages: 1 -->
<svg width="610pt" height="653pt"
 viewBox="0.00 0.00 610.42 653.00" xmlns="http://www.w3.org/2000/svg" xmlns:xlink="http://www.w3.org/1999/xlink">
<g id="graph0" class="graph" transform="scale(1 1) rotate(0) translate(4 648.998)">
<title>controllers_diagram</title>
<polygon fill="none" stroke="none" points="-4,5 -4,-648.998 607.423,-648.998 607.423,5 -4,5"/>
<!-- _diagram_info -->
<g id="node1" class="node"><title>_diagram_info</title>
<text text-anchor="start" x="404" y="-377" font-family="Times,serif" font-size="13.00">Controllers diagram</text>
<text text-anchor="start" x="404" y="-361.4" font-family="Times,serif" font-size="13.00">Date: Nov 01 2016 &#45; 18:33</text>
<text text-anchor="start" x="404" y="-345.8" font-family="Times,serif" font-size="13.00">Migration version: 20161101182526</text>
<text text-anchor="start" x="404" y="-330.2" font-family="Times,serif" font-size="13.00">Generated by RailRoady 1.5.2</text>
<text text-anchor="start" x="404" y="-314.6" font-family="Times,serif" font-size="13.00">http://railroady.prestonlee.com</text>
</g>
<!-- ApplicationController -->
<g id="node2" class="node"><title>ApplicationController</title>
<path fill="none" stroke="black" d="M213.556,-275.565C213.556,-275.565 329.197,-275.565 329.197,-275.565 335.197,-275.565 341.197,-281.565 341.197,-287.565 341.197,-287.565 341.197,-361.165 341.197,-361.165 341.197,-367.165 335.197,-373.165 329.197,-373.165 329.197,-373.165 213.556,-373.165 213.556,-373.165 207.556,-373.165 201.556,-367.165 201.556,-361.165 201.556,-361.165 201.556,-287.565 201.556,-287.565 201.556,-281.565 207.556,-275.565 213.556,-275.565"/>
<text text-anchor="middle" x="271.376" y="-355.165" font-family="Times,serif" font-size="14.00">ApplicationController</text>
<polyline fill="none" stroke="black" points="201.556,-348.365 341.197,-348.365 "/>
<polyline fill="none" stroke="black" points="201.556,-324.365 341.197,-324.365 "/>
<polyline fill="none" stroke="black" points="201.556,-300.365 341.197,-300.365 "/>
<text text-anchor="start" x="209.556" y="-282.365" font-family="Times,serif" font-size="14.00">_layout</text>
</g>
<!-- DoctorsController -->
<g id="node3" class="node"><title>DoctorsController</title>
<path fill="none" stroke="black" d="M319.928,-13.3064C319.928,-13.3064 413.797,-13.3064 413.797,-13.3064 419.797,-13.3064 425.797,-19.3064 425.797,-25.3064 425.797,-25.3064 425.797,-234.106 425.797,-234.106 425.797,-240.106 419.797,-246.106 413.797,-246.106 413.797,-246.106 319.928,-246.106 319.928,-246.106 313.928,-246.106 307.928,-240.106 307.928,-234.106 307.928,-234.106 307.928,-25.3064 307.928,-25.3064 307.928,-19.3064 313.928,-13.3064 319.928,-13.3064"/>
<text text-anchor="middle" x="366.862" y="-228.106" font-family="Times,serif" font-size="14.00">DoctorsController</text>
<polyline fill="none" stroke="black" points="307.928,-221.306 425.797,-221.306 "/>
<text text-anchor="start" x="315.928" y="-203.306" font-family="Times,serif" font-size="14.00">index</text>
<text text-anchor="start" x="315.928" y="-186.506" font-family="Times,serif" font-size="14.00">destroy</text>
<text text-anchor="start" x="315.928" y="-169.706" font-family="Times,serif" font-size="14.00">edit</text>
<text text-anchor="start" x="315.928" y="-152.906" font-family="Times,serif" font-size="14.00">create</text>
<text text-anchor="start" x="315.928" y="-136.106" font-family="Times,serif" font-size="14.00">new</text>
<text text-anchor="start" x="315.928" y="-119.306" font-family="Times,serif" font-size="14.00">show</text>
<text text-anchor="start" x="315.928" y="-102.506" font-family="Times,serif" font-size="14.00">update</text>
<polyline fill="none" stroke="black" points="307.928,-95.7064 425.797,-95.7064 "/>
<polyline fill="none" stroke="black" points="307.928,-71.7064 425.797,-71.7064 "/>
<text text-anchor="start" x="315.928" y="-53.7064" font-family="Times,serif" font-size="14.00">_layout</text>
<text text-anchor="start" x="315.928" y="-36.9064" font-family="Times,serif" font-size="14.00">doctor_params</text>
<text text-anchor="start" x="315.928" y="-20.1064" font-family="Times,serif" font-size="14.00">set_doctor</text>
</g>
<!-- ApplicationController&#45;&gt;DoctorsController -->
<g id="edge1" class="edge"><title>ApplicationController&#45;&gt;DoctorsController</title>
<path fill="none" stroke="black" d="M295.348,-275.496C299.823,-266.374 304.672,-256.489 309.664,-246.311"/>
</g>
<!-- LocationsController -->
<g id="node4" class="node"><title>LocationsController</title>
<path fill="none" stroke="black" d="M37.5177,-0.5C37.5177,-0.5 142.27,-0.5 142.27,-0.5 148.27,-0.5 154.27,-6.5 154.27,-12.5 154.27,-12.5 154.27,-221.3 154.27,-221.3 154.27,-227.3 148.27,-233.3 142.27,-233.3 142.27,-233.3 37.5177,-233.3 37.5177,-233.3 31.5177,-233.3 25.5177,-227.3 25.5177,-221.3 25.5177,-221.3 25.5177,-12.5 25.5177,-12.5 25.5177,-6.5 31.5177,-0.5 37.5177,-0.5"/>
<text text-anchor="middle" x="89.8937" y="-215.3" font-family="Times,serif" font-size="14.00">LocationsController</text>
<polyline fill="none" stroke="black" points="25.5177,-208.5 154.27,-208.5 "/>
<text text-anchor="start" x="33.5177" y="-190.5" font-family="Times,serif" font-size="14.00">index</text>
<text text-anchor="start" x="33.5177" y="-173.7" font-family="Times,serif" font-size="14.00">destroy</text>
<text text-anchor="start" x="33.5177" y="-156.9" font-family="Times,serif" font-size="14.00">edit</text>
<text text-anchor="start" x="33.5177" y="-140.1" font-family="Times,serif" font-size="14.00">create</text>
<text text-anchor="start" x="33.5177" y="-123.3" font-family="Times,serif" font-size="14.00">new</text>
<text text-anchor="start" x="33.5177" y="-106.5" font-family="Times,serif" font-size="14.00">show</text>
<text text-anchor="start" x="33.5177" y="-89.7" font-family="Times,serif" font-size="14.00">update</text>
<polyline fill="none" stroke="black" points="25.5177,-82.9 154.27,-82.9 "/>
<polyline fill="none" stroke="black" points="25.5177,-58.9 154.27,-58.9 "/>
<text text-anchor="start" x="33.5177" y="-40.9" font-family="Times,serif" font-size="14.00">_layout</text>
<text text-anchor="start" x="33.5177" y="-24.1" font-family="Times,serif" font-size="14.00">location_params</text>
<text text-anchor="start" x="33.5177" y="-7.3" font-family="Times,serif" font-size="14.00">set_location</text>
</g>
<!-- ApplicationController&#45;&gt;LocationsController -->
<g id="edge2" class="edge"><title>ApplicationController&#45;&gt;LocationsController</title>
<path fill="none" stroke="black" d="M228.597,-275.462C206.486,-250.185 179.043,-218.812 154.417,-190.661"/>
</g>
<!-- RotaController -->
<g id="node5" class="node"><title>RotaController</title>
<path fill="none" stroke="black" d="M12,-250.672C12,-250.672 87.9863,-250.672 87.9863,-250.672 93.9863,-250.672 99.9863,-256.672 99.9863,-262.672 99.9863,-262.672 99.9863,-471.472 99.9863,-471.472 99.9863,-477.472 93.9863,-483.472 87.9863,-483.472 87.9863,-483.472 12,-483.472 12,-483.472 6,-483.472 -2.84217e-14,-477.472 -2.84217e-14,-471.472 -2.84217e-14,-471.472 -2.84217e-14,-262.672 -2.84217e-14,-262.672 -2.84217e-14,-256.672 6,-250.672 12,-250.672"/>
<text text-anchor="middle" x="49.9932" y="-465.472" font-family="Times,serif" font-size="14.00">RotaController</text>
<polyline fill="none" stroke="black" points="-2.84217e-14,-458.672 99.9863,-458.672 "/>
<text text-anchor="start" x="8" y="-440.672" font-family="Times,serif" font-size="14.00">index</text>
<text text-anchor="start" x="8" y="-423.872" font-family="Times,serif" font-size="14.00">destroy</text>
<text text-anchor="start" x="8" y="-407.072" font-family="Times,serif" font-size="14.00">edit</text>
<text text-anchor="start" x="8" y="-390.272" font-family="Times,serif" font-size="14.00">create</text>
<text text-anchor="start" x="8" y="-373.472" font-family="Times,serif" font-size="14.00">new</text>
<text text-anchor="start" x="8" y="-356.672" font-family="Times,serif" font-size="14.00">show</text>
<text text-anchor="start" x="8" y="-339.872" font-family="Times,serif" font-size="14.00">update</text>
<polyline fill="none" stroke="black" points="-2.84217e-14,-333.072 99.9863,-333.072 "/>
<polyline fill="none" stroke="black" points="-2.84217e-14,-309.072 99.9863,-309.072 "/>
<text text-anchor="start" x="8" y="-291.072" font-family="Times,serif" font-size="14.00">_layout</text>
<text text-anchor="start" x="8" y="-274.272" font-family="Times,serif" font-size="14.00">rotum_params</text>
<text text-anchor="start" x="8" y="-257.472" font-family="Times,serif" font-size="14.00">set_rotum</text>
</g>
<!-- ApplicationController&#45;&gt;RotaController -->
<g id="edge3" class="edge"><title>ApplicationController&#45;&gt;RotaController</title>
<path fill="none" stroke="black" d="M201.329,-337.878C168.52,-344.207 130.179,-351.603 100.298,-357.368"/>
</g>
<!-- SessionsController -->
<g id="node6" class="node"><title>SessionsController</title>
<path fill="none" stroke="black" d="M329.453,-452.743C329.453,-452.743 427.232,-452.743 427.232,-452.743 433.232,-452.743 439.232,-458.743 439.232,-464.743 439.232,-464.743 439.232,-572.743 439.232,-572.743 439.232,-578.743 433.232,-584.743 427.232,-584.743 427.232,-584.743 329.453,-584.743 329.453,-584.743 323.453,-584.743 317.453,-578.743 317.453,-572.743 317.453,-572.743 317.453,-464.743 317.453,-464.743 317.453,-458.743 323.453,-452.743 329.453,-452.743"/>
<text text-anchor="middle" x="378.343" y="-566.743" font-family="Times,serif" font-size="14.00">SessionsController</text>
<polyline fill="none" stroke="black" points="317.453,-559.943 439.232,-559.943 "/>
<text text-anchor="start" x="325.453" y="-541.943" font-family="Times,serif" font-size="14.00">create</text>
<text text-anchor="start" x="325.453" y="-525.143" font-family="Times,serif" font-size="14.00">destroy</text>
<text text-anchor="start" x="325.453" y="-508.343" font-family="Times,serif" font-size="14.00">new</text>
<polyline fill="none" stroke="black" points="317.453,-501.543 439.232,-501.543 "/>
<polyline fill="none" stroke="black" points="317.453,-477.543 439.232,-477.543 "/>
<text text-anchor="start" x="325.453" y="-459.543" font-family="Times,serif" font-size="14.00">_layout</text>
</g>
<!-- ApplicationController&#45;&gt;SessionsController -->
<g id="edge4" class="edge"><title>ApplicationController&#45;&gt;SessionsController</title>
<path fill="none" stroke="black" d="M298.369,-373.415C311.551,-397.37 327.607,-426.546 341.863,-452.452"/>
</g>
<!-- StaticPagesController -->
<g id="node7" class="node"><title>StaticPagesController</title>
<path fill="none" stroke="black" d="M58.0863,-495.698C58.0863,-495.698 172.176,-495.698 172.176,-495.698 178.176,-495.698 184.176,-501.698 184.176,-507.698 184.176,-507.698 184.176,-632.498 184.176,-632.498 184.176,-638.498 178.176,-644.498 172.176,-644.498 172.176,-644.498 58.0863,-644.498 58.0863,-644.498 52.0863,-644.498 46.0863,-638.498 46.0863,-632.498 46.0863,-632.498 46.0863,-507.698 46.0863,-507.698 46.0863,-501.698 52.0863,-495.698 58.0863,-495.698"/>
<text text-anchor="middle" x="115.131" y="-626.498" font-family="Times,serif" font-size="14.00">StaticPagesController</text>
<polyline fill="none" stroke="black" points="46.0863,-619.698 184.176,-619.698 "/>
<text text-anchor="start" x="54.0863" y="-601.698" font-family="Times,serif" font-size="14.00">about</text>
<text text-anchor="start" x="54.0863" y="-584.898" font-family="Times,serif" font-size="14.00">contact</text>
<text text-anchor="start" x="54.0863" y="-568.098" font-family="Times,serif" font-size="14.00">help</text>
<text text-anchor="start" x="54.0863" y="-551.298" font-family="Times,serif" font-size="14.00">home</text>
<polyline fill="none" stroke="black" points="46.0863,-544.498 184.176,-544.498 "/>
<polyline fill="none" stroke="black" points="46.0863,-520.498 184.176,-520.498 "/>
<text text-anchor="start" x="54.0863" y="-502.498" font-family="Times,serif" font-size="14.00">_layout</text>
</g>
<!-- ApplicationController&#45;&gt;StaticPagesController -->
<g id="edge5" class="edge"><title>ApplicationController&#45;&gt;StaticPagesController</title>
<path fill="none" stroke="black" d="M240.321,-373.208C218.072,-408.2 187.703,-455.962 162.448,-495.681"/>
</g>
</g>
</svg>
