<?xml version="1.0" encoding="UTF-8" standalone="no"?>
<!DOCTYPE svg PUBLIC "-//W3C//DTD SVG 1.1//EN"
 "http://www.w3.org/Graphics/SVG/1.1/DTD/svg11.dtd">
<!-- Generated by graphviz version 2.29.20121017.0445 (20121017.0445)
 -->
<!-- Title: models_diagram Pages: 1 -->
<svg width="443pt" height="502pt"
 viewBox="0.00 0.00 443.00 502.00" xmlns="http://www.w3.org/2000/svg" xmlns:xlink="http://www.w3.org/1999/xlink">
<g id="graph0" class="graph" transform="scale(1 1) rotate(0) translate(4 498)">
<title>models_diagram</title>
<polygon fill="none" stroke="none" points="-4,5 -4,-498 440,-498 440,5 -4,5"/>
<!-- _diagram_info -->
<g id="node1" class="node"><title>_diagram_info</title>
<text text-anchor="start" x="7.78833" y="-477" font-family="Times,serif" font-size="13.00">Models diagram</text>
<text text-anchor="start" x="7.78833" y="-461.4" font-family="Times,serif" font-size="13.00">Date: Nov 01 2016 &#45; 18:33</text>
<text text-anchor="start" x="7.78833" y="-445.8" font-family="Times,serif" font-size="13.00">Migration version: 20161101182526</text>
<text text-anchor="start" x="7.78833" y="-430.2" font-family="Times,serif" font-size="13.00">Generated by RailRoady 1.5.2</text>
<text text-anchor="start" x="7.78833" y="-414.6" font-family="Times,serif" font-size="13.00">http://railroady.prestonlee.com</text>
</g>
<!-- ApplicationRecord -->
<g id="node2" class="node"><title>ApplicationRecord</title>
<ellipse fill="none" stroke="black" cx="309" cy="-451" rx="84.2726" ry="18"/>
<text text-anchor="middle" x="309" y="-445.4" font-family="Times,serif" font-size="14.00">ApplicationRecord</text>
</g>
<!-- Doctor -->
<g id="node3" class="node"><title>Doctor</title>
<path fill="none" stroke="black" d="M57.1772,-204.4C57.1772,-204.4 212.823,-204.4 212.823,-204.4 218.823,-204.4 224.823,-210.4 224.823,-216.4 224.823,-216.4 224.823,-359.6 224.823,-359.6 224.823,-365.6 218.823,-371.6 212.823,-371.6 212.823,-371.6 57.1772,-371.6 57.1772,-371.6 51.1772,-371.6 45.1772,-365.6 45.1772,-359.6 45.1772,-359.6 45.1772,-216.4 45.1772,-216.4 45.1772,-210.4 51.1772,-204.4 57.1772,-204.4"/>
<text text-anchor="middle" x="135" y="-353.6" font-family="Times,serif" font-size="14.00">Doctor</text>
<polyline fill="none" stroke="black" points="45.1772,-346.8 224.823,-346.8 "/>
<text text-anchor="start" x="53.1772" y="-328.8" font-family="Times,serif" font-size="14.00">consultant :boolean</text>
<text text-anchor="start" x="53.1772" y="-312" font-family="Times,serif" font-size="14.00">name :varchar</text>
<text text-anchor="start" x="53.1772" y="-295.2" font-family="Times,serif" font-size="14.00">email :varchar</text>
<text text-anchor="start" x="53.1772" y="-278.4" font-family="Times,serif" font-size="14.00">created_at :datetime</text>
<text text-anchor="start" x="53.1772" y="-261.6" font-family="Times,serif" font-size="14.00">updated_at :datetime</text>
<text text-anchor="start" x="53.1772" y="-244.8" font-family="Times,serif" font-size="14.00">password_digest :varchar</text>
<text text-anchor="start" x="53.1772" y="-228" font-family="Times,serif" font-size="14.00">rememember_digest :varchar</text>
<text text-anchor="start" x="53.1772" y="-211.2" font-family="Times,serif" font-size="14.00">id :INTEGER</text>
</g>
<!-- ApplicationRecord&#45;&gt;Doctor -->
<g id="edge1" class="edge"><title>ApplicationRecord&#45;&gt;Doctor</title>
<path fill="none" stroke="black" d="M291.034,-433.377C274.884,-418.433 249.876,-395.293 224.576,-371.884"/>
</g>
<!-- Location -->
<g id="node4" class="node"><title>Location</title>
<path fill="none" stroke="black" d="M254.495,-238C254.495,-238 363.505,-238 363.505,-238 369.505,-238 375.505,-244 375.505,-250 375.505,-250 375.505,-326 375.505,-326 375.505,-332 369.505,-338 363.505,-338 363.505,-338 254.495,-338 254.495,-338 248.495,-338 242.495,-332 242.495,-326 242.495,-326 242.495,-250 242.495,-250 242.495,-244 248.495,-238 254.495,-238"/>
<text text-anchor="middle" x="309" y="-320" font-family="Times,serif" font-size="14.00">Location</text>
<polyline fill="none" stroke="black" points="242.495,-313.2 375.505,-313.2 "/>
<text text-anchor="start" x="250.495" y="-295.2" font-family="Times,serif" font-size="14.00">id :INTEGER</text>
<text text-anchor="start" x="250.495" y="-278.4" font-family="Times,serif" font-size="14.00">name :varchar</text>
<text text-anchor="start" x="250.495" y="-261.6" font-family="Times,serif" font-size="14.00">created_at :datetime</text>
<text text-anchor="start" x="250.495" y="-244.8" font-family="Times,serif" font-size="14.00">updated_at :datetime</text>
</g>
<!-- ApplicationRecord&#45;&gt;Location -->
<g id="edge3" class="edge"><title>ApplicationRecord&#45;&gt;Location</title>
<path fill="none" stroke="black" d="M309,-432.77C309,-410.381 309,-370.352 309,-338.208"/>
</g>
<!-- Rotum -->
<g id="node5" class="node"><title>Rotum</title>
<path fill="none" stroke="black" d="M288.253,-0.4C288.253,-0.4 423.747,-0.4 423.747,-0.4 429.747,-0.4 435.747,-6.4 435.747,-12.4 435.747,-12.4 435.747,-155.6 435.747,-155.6 435.747,-161.6 429.747,-167.6 423.747,-167.6 423.747,-167.6 288.253,-167.6 288.253,-167.6 282.253,-167.6 276.253,-161.6 276.253,-155.6 276.253,-155.6 276.253,-12.4 276.253,-12.4 276.253,-6.4 282.253,-0.4 288.253,-0.4"/>
<text text-anchor="middle" x="356" y="-149.6" font-family="Times,serif" font-size="14.00">Rotum</text>
<polyline fill="none" stroke="black" points="276.253,-142.8 435.747,-142.8 "/>
<text text-anchor="start" x="284.253" y="-124.8" font-family="Times,serif" font-size="14.00">locations_id :integer</text>
<text text-anchor="start" x="284.253" y="-108" font-family="Times,serif" font-size="14.00">Date :date</text>
<text text-anchor="start" x="284.253" y="-91.2" font-family="Times,serif" font-size="14.00">First_on_call_day :text</text>
<text text-anchor="start" x="284.253" y="-74.4" font-family="Times,serif" font-size="14.00">First_on_call_nights :text</text>
<text text-anchor="start" x="284.253" y="-57.6" font-family="Times,serif" font-size="14.00">Second_on_call :text</text>
<text text-anchor="start" x="284.253" y="-40.8" font-family="Times,serif" font-size="14.00">created_at :datetime</text>
<text text-anchor="start" x="284.253" y="-24" font-family="Times,serif" font-size="14.00">updated_at :datetime</text>
<text text-anchor="start" x="284.253" y="-7.2" font-family="Times,serif" font-size="14.00">id :INTEGER</text>
</g>
<!-- ApplicationRecord&#45;&gt;Rotum -->
<g id="edge4" class="edge"><title>ApplicationRecord&#45;&gt;Rotum</title>
<path fill="none" stroke="black" d="M332.6,-433.551C350.485,-419.532 373.683,-397.616 384,-372 410.279,-306.755 399.279,-226.679 384.004,-167.703"/>
</g>
<!-- Location&#45;&gt;Rotum -->
<g id="edge2" class="edge"><title>Location&#45;&gt;Rotum</title>
<path fill="none" stroke="#f55d54" d="M322.254,-230.036C326.179,-213.166 330.578,-194.259 334.871,-175.809"/>
<ellipse fill="none" stroke="#f55d54" cx="321.344" cy="-233.948" rx="4.00001" ry="4.00001"/>
<ellipse fill="#f55d54" stroke="#f55d54" cx="335.796" cy="-171.834" rx="4.00001" ry="4.00001"/>
</g>
</g>
</svg>
