<?xml version="1.0" encoding="UTF-8" standalone="no"?>
<!DOCTYPE svg PUBLIC "-//W3C//DTD SVG 1.1//EN"
 "http://www.w3.org/Graphics/SVG/1.1/DTD/svg11.dtd">
<!-- Generated by graphviz version 2.29.20121017.0445 (20121017.0445)
 -->
<!-- Title: models_diagram Pages: 1 -->
<svg width="401pt" height="238pt"
 viewBox="0.00 0.00 401.00 238.00" xmlns="http://www.w3.org/2000/svg" xmlns:xlink="http://www.w3.org/1999/xlink">
<g id="graph0" class="graph" transform="scale(1 1) rotate(0) translate(4 234)">
<title>models_diagram</title>
<polygon fill="none" stroke="none" points="-4,5 -4,-234 398,-234 398,5 -4,5"/>
<!-- _diagram_info -->
<g id="node1" class="node"><title>_diagram_info</title>
<text text-anchor="start" x="7.78833" y="-213" font-family="Times,serif" font-size="13.00">Models diagram</text>
<text text-anchor="start" x="7.78833" y="-197.4" font-family="Times,serif" font-size="13.00">Date: Nov 01 2016 &#45; 18:33</text>
<text text-anchor="start" x="7.78833" y="-181.8" font-family="Times,serif" font-size="13.00">Migration version: 20161101182526</text>
<text text-anchor="start" x="7.78833" y="-166.2" font-family="Times,serif" font-size="13.00">Generated by RailRoady 1.5.2</text>
<text text-anchor="start" x="7.78833" y="-150.6" font-family="Times,serif" font-size="13.00">http://railroady.prestonlee.com</text>
</g>
<!-- ApplicationRecord -->
<g id="node2" class="node"><title>ApplicationRecord</title>
<ellipse fill="none" stroke="black" cx="309" cy="-187" rx="84.2726" ry="18"/>
<text text-anchor="middle" x="309" y="-181.4" font-family="Times,serif" font-size="14.00">ApplicationRecord</text>
</g>
<!-- Doctor -->
<g id="node3" class="node"><title>Doctor</title>
<ellipse fill="none" stroke="black" cx="208" cy="-90" rx="37.2809" ry="18"/>
<text text-anchor="middle" x="208" y="-84.4" font-family="Times,serif" font-size="14.00">Doctor</text>
</g>
<!-- ApplicationRecord&#45;&gt;Doctor -->
<g id="edge1" class="edge"><title>ApplicationRecord&#45;&gt;Doctor</title>
<path fill="none" stroke="black" d="M290.943,-169.016C271.992,-151.19 242.469,-123.422 224.233,-106.268"/>
</g>
<!-- Location -->
<g id="node4" class="node"><title>Location</title>
<ellipse fill="none" stroke="black" cx="309" cy="-90" rx="45.0398" ry="18"/>
<text text-anchor="middle" x="309" y="-84.4" font-family="Times,serif" font-size="14.00">Location</text>
</g>
<!-- ApplicationRecord&#45;&gt;Location -->
<g id="edge3" class="edge"><title>ApplicationRecord&#45;&gt;Location</title>
<path fill="none" stroke="black" d="M309,-168.576C309,-151.434 309,-125.417 309,-108.314"/>
</g>
<!-- Rotum -->
<g id="node5" class="node"><title>Rotum</title>
<ellipse fill="none" stroke="black" cx="345" cy="-18" rx="36.9951" ry="18"/>
<text text-anchor="middle" x="345" y="-12.4" font-family="Times,serif" font-size="14.00">Rotum</text>
</g>
<!-- ApplicationRecord&#45;&gt;Rotum -->
<g id="edge4" class="edge"><title>ApplicationRecord&#45;&gt;Rotum</title>
<path fill="none" stroke="black" d="M325.319,-169.085C338.36,-154.308 355.634,-131.582 363,-108 370.709,-83.3226 361.153,-53.7375 353.29,-35.6603"/>
</g>
<!-- Location&#45;&gt;Rotum -->
<g id="edge2" class="edge"><title>Location&#45;&gt;Rotum</title>
<path fill="none" stroke="#1552d6" d="M321.49,-64.7144C325.095,-57.7051 329.026,-50.0612 332.624,-43.0653"/>
<ellipse fill="none" stroke="#1552d6" cx="319.544" cy="-68.4978" rx="4.00002" ry="4.00002"/>
<ellipse fill="#1552d6" stroke="#1552d6" cx="334.536" cy="-39.3462" rx="4.00002" ry="4.00002"/>
</g>
</g>
</svg>
